<?xml version="1.0" encoding="us-ascii" standalone="no"?><svg xmlns="http://www.w3.org/2000/svg" xmlns:xlink="http://www.w3.org/1999/xlink" contentStyleType="text/css" height="409px" preserveAspectRatio="none" style="width:711px;height:409px;background:#FFFFFF;" version="1.1" viewBox="0 0 711 409" width="711px" zoomAndPan="magnify"><defs/><g><rect fill="none" height="223.668" style="stroke:#000000;stroke-width:1.5;" width="694.5" x="10" y="131.2031"/><line style="stroke:#181818;stroke-width:0.5;stroke-dasharray:5.0,5.0;" x1="41" x2="41" y1="38.6211" y2="371.8711"/><line style="stroke:#181818;stroke-width:0.5;stroke-dasharray:5.0,5.0;" x1="168.5" x2="168.5" y1="38.6211" y2="371.8711"/><line style="stroke:#181818;stroke-width:0.5;stroke-dasharray:5.0,5.0;" x1="297" x2="297" y1="38.6211" y2="371.8711"/><line style="stroke:#181818;stroke-width:0.5;stroke-dasharray:5.0,5.0;" x1="503" x2="503" y1="38.6211" y2="371.8711"/><line style="stroke:#181818;stroke-width:0.5;stroke-dasharray:5.0,5.0;" x1="658.5" x2="658.5" y1="38.6211" y2="371.8711"/><rect fill="#E2E2F0" height="32.6211" rx="2.5" ry="2.5" style="stroke:#181818;stroke-width:0.5;" width="42" x="20" y="5"/><text fill="#000000" font-family="sans-serif" font-size="14" lengthAdjust="spacing" textLength="28" x="27" y="27.1074">&#29992;&#25143;</text><rect fill="#E2E2F0" height="32.6211" rx="2.5" ry="2.5" style="stroke:#181818;stroke-width:0.5;" width="42" x="20" y="370.8711"/><text fill="#000000" font-family="sans-serif" font-size="14" lengthAdjust="spacing" textLength="28" x="27" y="392.9785">&#29992;&#25143;</text><rect fill="#E2E2F0" height="32.6211" rx="2.5" ry="2.5" style="stroke:#181818;stroke-width:0.5;" width="89" x="124.5" y="5"/><text fill="#000000" font-family="sans-serif" font-size="14" lengthAdjust="spacing" textLength="75" x="131.5" y="27.1074">OpenAI&#21161;&#25163;</text><rect fill="#E2E2F0" height="32.6211" rx="2.5" ry="2.5" style="stroke:#181818;stroke-width:0.5;" width="89" x="124.5" y="370.8711"/><text fill="#000000" font-family="sans-serif" font-size="14" lengthAdjust="spacing" textLength="75" x="131.5" y="392.9785">OpenAI&#21161;&#25163;</text><rect fill="#E2E2F0" height="32.6211" rx="2.5" ry="2.5" style="stroke:#181818;stroke-width:0.5;" width="56" x="269" y="5"/><text fill="#000000" font-family="sans-serif" font-size="14" lengthAdjust="spacing" textLength="42" x="276" y="27.1074">&#23458;&#25143;&#31471;</text><rect fill="#E2E2F0" height="32.6211" rx="2.5" ry="2.5" style="stroke:#181818;stroke-width:0.5;" width="56" x="269" y="370.8711"/><text fill="#000000" font-family="sans-serif" font-size="14" lengthAdjust="spacing" textLength="42" x="276" y="392.9785">&#23458;&#25143;&#31471;</text><rect fill="#E2E2F0" height="32.6211" rx="2.5" ry="2.5" style="stroke:#181818;stroke-width:0.5;" width="98" x="454" y="5"/><text fill="#000000" font-family="sans-serif" font-size="14" lengthAdjust="spacing" textLength="84" x="461" y="27.1074">&#22270;&#29255;&#29983;&#25104;&#26381;&#21153;</text><rect fill="#E2E2F0" height="32.6211" rx="2.5" ry="2.5" style="stroke:#181818;stroke-width:0.5;" width="98" x="454" y="370.8711"/><text fill="#000000" font-family="sans-serif" font-size="14" lengthAdjust="spacing" textLength="84" x="461" y="392.9785">&#22270;&#29255;&#29983;&#25104;&#26381;&#21153;</text><rect fill="#E2E2F0" height="32.6211" rx="2.5" ry="2.5" style="stroke:#181818;stroke-width:0.5;" width="71" x="623.5" y="5"/><text fill="#000000" font-family="sans-serif" font-size="14" lengthAdjust="spacing" textLength="57" x="630.5" y="27.1074">OSS&#26381;&#21153;</text><rect fill="#E2E2F0" height="32.6211" rx="2.5" ry="2.5" style="stroke:#181818;stroke-width:0.5;" width="71" x="623.5" y="370.8711"/><text fill="#000000" font-family="sans-serif" font-size="14" lengthAdjust="spacing" textLength="57" x="630.5" y="392.9785">OSS&#26381;&#21153;</text><polygon fill="#181818" points="157,67.9121,167,71.9121,157,75.9121,161,71.9121" style="stroke:#181818;stroke-width:1.0;"/><line style="stroke:#181818;stroke-width:1.0;" x1="41" x2="163" y1="71.9121" y2="71.9121"/><text fill="#000000" font-family="sans-serif" font-size="13" lengthAdjust="spacing" textLength="52" x="48" y="66.6494">&#21457;&#36865;&#28040;&#24687;</text><line style="stroke:#181818;stroke-width:1.0;" x1="169" x2="211" y1="103.2031" y2="103.2031"/><line style="stroke:#181818;stroke-width:1.0;" x1="211" x2="211" y1="103.2031" y2="116.2031"/><line style="stroke:#181818;stroke-width:1.0;" x1="170" x2="211" y1="116.2031" y2="116.2031"/><polygon fill="#181818" points="180,112.2031,170,116.2031,180,120.2031,176,116.2031" style="stroke:#181818;stroke-width:1.0;"/><text fill="#000000" font-family="sans-serif" font-size="13" lengthAdjust="spacing" textLength="78" x="176" y="97.9404">&#20998;&#26512;&#28040;&#24687;&#20869;&#23481;</text><path d="M10,131.2031 L71,131.2031 L71,140.4941 L61,150.4941 L10,150.4941 L10,131.2031 " fill="#EEEEEE" style="stroke:#000000;stroke-width:1.5;"/><rect fill="none" height="223.668" style="stroke:#000000;stroke-width:1.5;" width="694.5" x="10" y="131.2031"/><text fill="#000000" font-family="sans-serif" font-size="13" font-weight="bold" lengthAdjust="spacing" textLength="16" x="25" y="146.2314">alt</text><text fill="#000000" font-family="sans-serif" font-size="11" font-weight="bold" lengthAdjust="spacing" textLength="118" x="86" y="145.0732">[&#22914;&#26524;&#28040;&#24687;&#35201;&#27714;&#29983;&#25104;&#22270;&#29255;]</text><polygon fill="#181818" points="285,169.7852,295,173.7852,285,177.7852,289,173.7852" style="stroke:#181818;stroke-width:1.0;"/><line style="stroke:#181818;stroke-width:1.0;" x1="169" x2="291" y1="173.7852" y2="173.7852"/><text fill="#000000" font-family="sans-serif" font-size="13" lengthAdjust="spacing" textLength="104" x="176" y="168.5225">&#36820;&#22238;&#20989;&#25968;&#35843;&#29992;&#21629;&#20196;</text><polygon fill="#181818" points="491,201.0762,501,205.0762,491,209.0762,495,205.0762" style="stroke:#181818;stroke-width:1.0;"/><line style="stroke:#181818;stroke-width:1.0;" x1="297" x2="497" y1="205.0762" y2="205.0762"/><text fill="#000000" font-family="sans-serif" font-size="13" lengthAdjust="spacing" textLength="104" x="304" y="199.8135">&#35843;&#29992;&#22270;&#29255;&#29983;&#25104;&#20989;&#25968;</text><polygon fill="#181818" points="647,232.3672,657,236.3672,647,240.3672,651,236.3672" style="stroke:#181818;stroke-width:1.0;"/><line style="stroke:#181818;stroke-width:1.0;" x1="503" x2="653" y1="236.3672" y2="236.3672"/><text fill="#000000" font-family="sans-serif" font-size="13" lengthAdjust="spacing" textLength="132" x="510" y="231.1045">&#20445;&#23384;&#29983;&#25104;&#30340;&#22270;&#29255;&#21040;OSS</text><polygon fill="#181818" points="308,263.6582,298,267.6582,308,271.6582,304,267.6582" style="stroke:#181818;stroke-width:1.0;"/><line style="stroke:#181818;stroke-width:1.0;" x1="302" x2="502" y1="267.6582" y2="267.6582"/><text fill="#000000" font-family="sans-serif" font-size="13" lengthAdjust="spacing" textLength="182" x="314" y="262.3955">&#36820;&#22238;&#22270;&#29255;&#25968;&#32452;&#65288;&#36335;&#24452;&#12289;&#22823;&#23567;&#31561;&#65289;</text><polygon fill="#181818" points="52,294.9492,42,298.9492,52,302.9492,48,298.9492" style="stroke:#181818;stroke-width:1.0;"/><line style="stroke:#181818;stroke-width:1.0;" x1="46" x2="296" y1="298.9492" y2="298.9492"/><text fill="#000000" font-family="sans-serif" font-size="13" lengthAdjust="spacing" textLength="91" x="58" y="293.6865">&#25226;&#22270;&#29255;&#28210;&#26579;&#20986;&#26469;</text><line style="stroke:#000000;stroke-width:1.0;stroke-dasharray:2.0,2.0;" x1="10" x2="704.5" y1="307.9492" y2="307.9492"/><text fill="#000000" font-family="sans-serif" font-size="11" font-weight="bold" lengthAdjust="spacing" textLength="52" x="15" y="319.8193">[&#20854;&#20182;&#24773;&#20917;]</text><polygon fill="#181818" points="52,342.8711,42,346.8711,52,350.8711,48,346.8711" style="stroke:#181818;stroke-width:1.0;"/><line style="stroke:#181818;stroke-width:1.0;" x1="46" x2="168" y1="346.8711" y2="346.8711"/><text fill="#000000" font-family="sans-serif" font-size="13" lengthAdjust="spacing" textLength="104" x="58" y="341.6084">&#36820;&#22238;&#26222;&#36890;&#25991;&#26412;&#21709;&#24212;</text><!--SRC=[RP3BJi9058RtynGJzhv05oR45IiNF463ZMc2fA74DUNMYo50g4IvHeEeKQ2Q2ChrOUISbXMlOEbuASNPpPdlF_ET8_79b1WJ9JwHehRvWDgOIBvIw5WI4k4868-eNuGeBzEmB8joodtRvM1mwsRjfw477SL5OOzeB6nTjSqEQcLi5i6uyT386NygH8NakHWJ0bz7epxElH723Ed1uPy6Hw5KMQSL76ce3CblFGXf1MoN6GI5F0m-2E7ZAGgz3BQRhExq57p9C4DcIwXxTbgooJZgB4rej46TuwNbM5bN32hprRJh9HYqnVtJkI46-XR16dWXFxgDkWDpTBLiGV-AiNOznwAWMTjj_1SAw7cu-u4zpMrccZCUmYBtcLQWUmzMoUxhcvaU46ORvYWQndVw_HKxLL0dsBeZGbmMAEH7gsaDitaelEqlwAS1Cy3hmJfTnvgApMUe5c5Y4Y5nGhu0]--></g></svg>