<?xml version="1.0" encoding="us-ascii" standalone="no"?><svg xmlns="http://www.w3.org/2000/svg" xmlns:xlink="http://www.w3.org/1999/xlink" contentStyleType="text/css" height="485px" preserveAspectRatio="none" style="width:550px;height:485px;background:#FFFFFF;" version="1.1" viewBox="0 0 550 485" width="550px" zoomAndPan="magnify"><defs/><g><rect fill="none" height="236.668" style="stroke:#000000;stroke-width:1.5;" width="533" x="10" y="193.7852"/><line style="stroke:#181818;stroke-width:0.5;stroke-dasharray:5.0,5.0;" x1="48" x2="48" y1="38.6211" y2="447.4531"/><line style="stroke:#181818;stroke-width:0.5;stroke-dasharray:5.0,5.0;" x1="150" x2="150" y1="38.6211" y2="447.4531"/><line style="stroke:#181818;stroke-width:0.5;stroke-dasharray:5.0,5.0;" x1="255" x2="255" y1="38.6211" y2="447.4531"/><line style="stroke:#181818;stroke-width:0.5;stroke-dasharray:5.0,5.0;" x1="354" x2="354" y1="38.6211" y2="447.4531"/><line style="stroke:#181818;stroke-width:0.5;stroke-dasharray:5.0,5.0;" x1="459" x2="459" y1="38.6211" y2="447.4531"/><rect fill="#E2E2F0" height="32.6211" rx="2.5" ry="2.5" style="stroke:#181818;stroke-width:0.5;" width="56" x="20" y="5"/><text fill="#000000" font-family="sans-serif" font-size="14" lengthAdjust="spacing" textLength="42" x="27" y="27.1074">&#24320;&#21457;&#32773;</text><rect fill="#E2E2F0" height="32.6211" rx="2.5" ry="2.5" style="stroke:#181818;stroke-width:0.5;" width="56" x="20" y="446.4531"/><text fill="#000000" font-family="sans-serif" font-size="14" lengthAdjust="spacing" textLength="42" x="27" y="468.5605">&#24320;&#21457;&#32773;</text><rect fill="#E2E2F0" height="32.6211" rx="2.5" ry="2.5" style="stroke:#181818;stroke-width:0.5;" width="84" x="108" y="5"/><text fill="#000000" font-family="sans-serif" font-size="14" lengthAdjust="spacing" textLength="70" x="115" y="27.1074">&#28304;&#20195;&#30721;&#20179;&#24211;</text><rect fill="#E2E2F0" height="32.6211" rx="2.5" ry="2.5" style="stroke:#181818;stroke-width:0.5;" width="84" x="108" y="446.4531"/><text fill="#000000" font-family="sans-serif" font-size="14" lengthAdjust="spacing" textLength="70" x="115" y="468.5605">&#28304;&#20195;&#30721;&#20179;&#24211;</text><rect fill="#E2E2F0" height="32.6211" rx="2.5" ry="2.5" style="stroke:#181818;stroke-width:0.5;" width="107" x="202" y="5"/><text fill="#000000" font-family="sans-serif" font-size="14" lengthAdjust="spacing" textLength="93" x="209" y="27.1074">Jenkins &#26381;&#21153;&#22120;</text><rect fill="#E2E2F0" height="32.6211" rx="2.5" ry="2.5" style="stroke:#181818;stroke-width:0.5;" width="107" x="202" y="446.4531"/><text fill="#000000" font-family="sans-serif" font-size="14" lengthAdjust="spacing" textLength="93" x="209" y="468.5605">Jenkins &#26381;&#21153;&#22120;</text><rect fill="#E2E2F0" height="32.6211" rx="2.5" ry="2.5" style="stroke:#181818;stroke-width:0.5;" width="70" x="319" y="5"/><text fill="#000000" font-family="sans-serif" font-size="14" lengthAdjust="spacing" textLength="56" x="326" y="27.1074">&#26500;&#24314;&#20195;&#29702;</text><rect fill="#E2E2F0" height="32.6211" rx="2.5" ry="2.5" style="stroke:#181818;stroke-width:0.5;" width="70" x="319" y="446.4531"/><text fill="#000000" font-family="sans-serif" font-size="14" lengthAdjust="spacing" textLength="56" x="326" y="468.5605">&#26500;&#24314;&#20195;&#29702;</text><rect fill="#E2E2F0" height="32.6211" rx="2.5" ry="2.5" style="stroke:#181818;stroke-width:0.5;" width="84" x="417" y="5"/><text fill="#000000" font-family="sans-serif" font-size="14" lengthAdjust="spacing" textLength="70" x="424" y="27.1074">&#29983;&#20135;&#26381;&#21153;&#22120;</text><rect fill="#E2E2F0" height="32.6211" rx="2.5" ry="2.5" style="stroke:#181818;stroke-width:0.5;" width="84" x="417" y="446.4531"/><text fill="#000000" font-family="sans-serif" font-size="14" lengthAdjust="spacing" textLength="70" x="424" y="468.5605">&#29983;&#20135;&#26381;&#21153;&#22120;</text><polygon fill="#181818" points="138,67.9121,148,71.9121,138,75.9121,142,71.9121" style="stroke:#181818;stroke-width:1.0;"/><line style="stroke:#181818;stroke-width:1.0;" x1="48" x2="144" y1="71.9121" y2="71.9121"/><text fill="#000000" font-family="sans-serif" font-size="13" lengthAdjust="spacing" textLength="78" x="55" y="66.6494">&#25552;&#20132;&#20195;&#30721;&#26356;&#25913;</text><polygon fill="#181818" points="243.5,99.2031,253.5,103.2031,243.5,107.2031,247.5,103.2031" style="stroke:#181818;stroke-width:1.0;"/><line style="stroke:#181818;stroke-width:1.0;" x1="150" x2="249.5" y1="103.2031" y2="103.2031"/><text fill="#000000" font-family="sans-serif" font-size="13" lengthAdjust="spacing" textLength="52" x="157" y="97.9404">&#35302;&#21457;&#26500;&#24314;</text><polygon fill="#181818" points="342,130.4941,352,134.4941,342,138.4941,346,134.4941" style="stroke:#181818;stroke-width:1.0;"/><line style="stroke:#181818;stroke-width:1.0;" x1="255.5" x2="348" y1="134.4941" y2="134.4941"/><text fill="#000000" font-family="sans-serif" font-size="13" lengthAdjust="spacing" textLength="52" x="262.5" y="129.2314">&#26816;&#20986;&#20195;&#30721;</text><line style="stroke:#181818;stroke-width:1.0;" x1="354" x2="396" y1="165.7852" y2="165.7852"/><line style="stroke:#181818;stroke-width:1.0;" x1="396" x2="396" y1="165.7852" y2="178.7852"/><line style="stroke:#181818;stroke-width:1.0;" x1="355" x2="396" y1="178.7852" y2="178.7852"/><polygon fill="#181818" points="365,174.7852,355,178.7852,365,182.7852,361,178.7852" style="stroke:#181818;stroke-width:1.0;"/><text fill="#000000" font-family="sans-serif" font-size="13" lengthAdjust="spacing" textLength="91" x="361" y="160.5225">&#25191;&#34892;&#26500;&#24314;&#21644;&#27979;&#35797;</text><path d="M10,193.7852 L71,193.7852 L71,203.0762 L61,213.0762 L10,213.0762 L10,193.7852 " fill="#EEEEEE" style="stroke:#000000;stroke-width:1.5;"/><rect fill="none" height="236.668" style="stroke:#000000;stroke-width:1.5;" width="533" x="10" y="193.7852"/><text fill="#000000" font-family="sans-serif" font-size="13" font-weight="bold" lengthAdjust="spacing" textLength="16" x="25" y="208.8135">alt</text><text fill="#000000" font-family="sans-serif" font-size="11" font-weight="bold" lengthAdjust="spacing" textLength="52" x="86" y="207.6553">[&#26500;&#24314;&#25104;&#21151;]</text><polygon fill="#181818" points="266.5,232.3672,256.5,236.3672,266.5,240.3672,262.5,236.3672" style="stroke:#181818;stroke-width:1.0;"/><line style="stroke:#181818;stroke-width:1.0;" x1="260.5" x2="353" y1="236.3672" y2="236.3672"/><text fill="#000000" font-family="sans-serif" font-size="13" lengthAdjust="spacing" textLength="52" x="272.5" y="231.1045">&#25253;&#21578;&#25104;&#21151;</text><polygon fill="#181818" points="447,263.6582,457,267.6582,447,271.6582,451,267.6582" style="stroke:#181818;stroke-width:1.0;"/><line style="stroke:#181818;stroke-width:1.0;" x1="255.5" x2="453" y1="267.6582" y2="267.6582"/><text fill="#000000" font-family="sans-serif" font-size="13" lengthAdjust="spacing" textLength="52" x="262.5" y="262.3955">&#37096;&#32626;&#24212;&#29992;</text><line style="stroke:#181818;stroke-width:1.0;" x1="459" x2="501" y1="298.9492" y2="298.9492"/><line style="stroke:#181818;stroke-width:1.0;" x1="501" x2="501" y1="298.9492" y2="311.9492"/><line style="stroke:#181818;stroke-width:1.0;" x1="460" x2="501" y1="311.9492" y2="311.9492"/><polygon fill="#181818" points="470,307.9492,460,311.9492,470,315.9492,466,311.9492" style="stroke:#181818;stroke-width:1.0;"/><text fill="#000000" font-family="sans-serif" font-size="13" lengthAdjust="spacing" textLength="65" x="466" y="293.6865">&#21551;&#21160;&#26032;&#29256;&#26412;</text><polygon fill="#181818" points="59,339.2402,49,343.2402,59,347.2402,55,343.2402" style="stroke:#181818;stroke-width:1.0;"/><line style="stroke:#181818;stroke-width:1.0;" x1="53" x2="254.5" y1="343.2402" y2="343.2402"/><text fill="#000000" font-family="sans-serif" font-size="13" lengthAdjust="spacing" textLength="78" x="65" y="337.9775">&#21457;&#36865;&#25104;&#21151;&#36890;&#30693;</text><line style="stroke:#000000;stroke-width:1.0;stroke-dasharray:2.0,2.0;" x1="10" x2="543" y1="352.2402" y2="352.2402"/><text fill="#000000" font-family="sans-serif" font-size="11" font-weight="bold" lengthAdjust="spacing" textLength="52" x="15" y="364.1104">[&#26500;&#24314;&#22833;&#36133;]</text><polygon fill="#181818" points="266.5,387.1621,256.5,391.1621,266.5,395.1621,262.5,391.1621" style="stroke:#181818;stroke-width:1.0;"/><line style="stroke:#181818;stroke-width:1.0;" x1="260.5" x2="353" y1="391.1621" y2="391.1621"/><text fill="#000000" font-family="sans-serif" font-size="13" lengthAdjust="spacing" textLength="52" x="272.5" y="385.8994">&#25253;&#21578;&#22833;&#36133;</text><polygon fill="#181818" points="59,418.4531,49,422.4531,59,426.4531,55,422.4531" style="stroke:#181818;stroke-width:1.0;"/><line style="stroke:#181818;stroke-width:1.0;" x1="53" x2="254.5" y1="422.4531" y2="422.4531"/><text fill="#000000" font-family="sans-serif" font-size="13" lengthAdjust="spacing" textLength="78" x="65" y="417.1904">&#21457;&#36865;&#22833;&#36133;&#36890;&#30693;</text><!--SRC=[XP3DJeD054RtynIJxds1BbmOLwwCRq241P5G0kYQnhyMQm2B9ceZDYt2mgHgwi91tuOxm5iuC5IXCN6MtprpxZUZ2RefxykQe9eOFYrmlDmwnOA1jwKZf3M67KhSD9bbZ_qq6GCPTqfeJz9wRMf7KWzarS1qSWds56xZYglJDU732IIaTBfd5RLrA2kYfBUfp0zI4hLrktfFH8Wrn1kRLOSkfewRaZalIE-NrFz0vQ04wkLTd4TFx7ryBLeLPK2zbqbc5fmJBa5rsWQ6KJuTSGDSZUZxHRwuHe9YOfxHWGjsW30xZUi_1QWTWcSte4Q9yarTN1p7sTSR43_puueeuzynk0kmOthpaWq7TFAyxc0_mXZ7Awm-Nr9OTraG8aanfBeXp5_pPVXFmmRqjvq3AxigVWC0]--></g></svg>