<?xml version="1.0" encoding="us-ascii" standalone="no"?><svg xmlns="http://www.w3.org/2000/svg" xmlns:xlink="http://www.w3.org/1999/xlink" contentStyleType="text/css" height="501px" preserveAspectRatio="none" style="width:460px;height:501px;background:#FFFFFF;" version="1.1" viewBox="0 0 460 501" width="460px" zoomAndPan="magnify"><defs/><g><line style="stroke:#181818;stroke-width:0.5;stroke-dasharray:5.0,5.0;" x1="36" x2="36" y1="83.6211" y2="418.8223"/><line style="stroke:#181818;stroke-width:0.5;stroke-dasharray:5.0,5.0;" x1="137.5" x2="137.5" y1="83.6211" y2="418.8223"/><line style="stroke:#181818;stroke-width:0.5;stroke-dasharray:5.0,5.0;" x1="305" x2="305" y1="83.6211" y2="418.8223"/><line style="stroke:#181818;stroke-width:0.5;stroke-dasharray:5.0,5.0;" x1="433" x2="433" y1="83.6211" y2="418.8223"/><text fill="#000000" font-family="sans-serif" font-size="14" lengthAdjust="spacing" textLength="56" x="5" y="80.1074">&#31649;&#29702;&#20154;&#21592;</text><ellipse cx="36" cy="13.5" fill="#E2E2F0" rx="8" ry="8" style="stroke:#181818;stroke-width:0.5;"/><path d="M36,21.5 L36,48.5 M23,29.5 L49,29.5 M36,48.5 L23,63.5 M36,48.5 L49,63.5 " fill="none" style="stroke:#181818;stroke-width:0.5;"/><text fill="#000000" font-family="sans-serif" font-size="14" lengthAdjust="spacing" textLength="56" x="5" y="432.9297">&#31649;&#29702;&#20154;&#21592;</text><ellipse cx="36" cy="444.9434" fill="#E2E2F0" rx="8" ry="8" style="stroke:#181818;stroke-width:0.5;"/><path d="M36,452.9434 L36,479.9434 M23,460.9434 L49,460.9434 M36,479.9434 L23,494.9434 M36,479.9434 L49,494.9434 " fill="none" style="stroke:#181818;stroke-width:0.5;"/><rect fill="#E2E2F0" height="32.6211" rx="2.5" ry="2.5" style="stroke:#181818;stroke-width:0.5;" width="93" x="91.5" y="50"/><text fill="#000000" font-family="sans-serif" font-size="14" lengthAdjust="spacing" textLength="79" x="98.5" y="72.1074">OpenAI &#21161;&#25163;</text><rect fill="#E2E2F0" height="32.6211" rx="2.5" ry="2.5" style="stroke:#181818;stroke-width:0.5;" width="93" x="91.5" y="417.8223"/><text fill="#000000" font-family="sans-serif" font-size="14" lengthAdjust="spacing" textLength="79" x="98.5" y="439.9297">OpenAI &#21161;&#25163;</text><rect fill="#E2E2F0" height="32.6211" rx="2.5" ry="2.5" style="stroke:#181818;stroke-width:0.5;" width="56" x="277" y="50"/><text fill="#000000" font-family="sans-serif" font-size="14" lengthAdjust="spacing" textLength="42" x="284" y="72.1074">&#23458;&#25143;&#31471;</text><rect fill="#E2E2F0" height="32.6211" rx="2.5" ry="2.5" style="stroke:#181818;stroke-width:0.5;" width="56" x="277" y="417.8223"/><text fill="#000000" font-family="sans-serif" font-size="14" lengthAdjust="spacing" textLength="42" x="284" y="439.9297">&#23458;&#25143;&#31471;</text><rect fill="#E2E2F0" height="32.6211" rx="2.5" ry="2.5" style="stroke:#181818;stroke-width:0.5;" width="42" x="412" y="50"/><text fill="#000000" font-family="sans-serif" font-size="14" lengthAdjust="spacing" textLength="28" x="419" y="72.1074">&#32593;&#20851;</text><rect fill="#E2E2F0" height="32.6211" rx="2.5" ry="2.5" style="stroke:#181818;stroke-width:0.5;" width="42" x="412" y="417.8223"/><text fill="#000000" font-family="sans-serif" font-size="14" lengthAdjust="spacing" textLength="28" x="419" y="439.9297">&#32593;&#20851;</text><polygon fill="#181818" points="126,112.9121,136,116.9121,126,120.9121,130,116.9121" style="stroke:#181818;stroke-width:1.0;"/><line style="stroke:#181818;stroke-width:1.0;" x1="36" x2="132" y1="116.9121" y2="116.9121"/><text fill="#000000" font-family="sans-serif" font-size="13" lengthAdjust="spacing" textLength="78" x="43" y="111.6494">&#37197;&#32622;&#21487;&#29992;&#25554;&#20214;</text><polygon fill="#181818" points="149,144.2031,139,148.2031,149,152.2031,145,148.2031" style="stroke:#181818;stroke-width:1.0;"/><line style="stroke:#181818;stroke-width:1.0;" x1="143" x2="304" y1="148.2031" y2="148.2031"/><text fill="#000000" font-family="sans-serif" font-size="13" lengthAdjust="spacing" textLength="52" x="155" y="142.9404">&#21457;&#36865;&#28040;&#24687;</text><polygon fill="#181818" points="293,192.7852,303,196.7852,293,200.7852,297,196.7852" style="stroke:#181818;stroke-width:1.0;"/><line style="stroke:#181818;stroke-width:1.0;" x1="138" x2="299" y1="196.7852" y2="196.7852"/><text fill="#000000" font-family="sans-serif" font-size="13" lengthAdjust="spacing" textLength="52" x="145" y="174.2314">&#20998;&#26512;&#28040;&#24687;</text><text fill="#000000" font-family="sans-serif" font-size="13" lengthAdjust="spacing" textLength="143" x="145" y="191.5225">&#22914;&#26524;&#38656;&#35201;&#21017;&#29983;&#25104;&#35843;&#29992;&#21442;&#25968;</text><polygon fill="#181818" points="421,241.3672,431,245.3672,421,249.3672,425,245.3672" style="stroke:#181818;stroke-width:1.0;"/><line style="stroke:#181818;stroke-width:1.0;" x1="305" x2="427" y1="245.3672" y2="245.3672"/><text fill="#000000" font-family="sans-serif" font-size="13" lengthAdjust="spacing" textLength="78" x="312" y="222.8135">&#35843;&#29992;&#23545;&#24212;&#25554;&#20214;</text><text fill="#000000" font-family="sans-serif" font-size="13" lengthAdjust="spacing" textLength="78" x="312" y="240.1045">&#24102;&#19978;&#35843;&#29992;&#21442;&#25968;</text><polygon fill="#181818" points="316,272.6582,306,276.6582,316,280.6582,312,276.6582" style="stroke:#181818;stroke-width:1.0;"/><line style="stroke:#181818;stroke-width:1.0;" x1="310" x2="432" y1="276.6582" y2="276.6582"/><text fill="#000000" font-family="sans-serif" font-size="13" lengthAdjust="spacing" textLength="104" x="322" y="271.3955">&#36820;&#22238;&#25554;&#20214;&#35843;&#29992;&#32467;&#26524;</text><polygon fill="#181818" points="149,303.9492,139,307.9492,149,311.9492,145,307.9492" style="stroke:#181818;stroke-width:1.0;"/><line style="stroke:#181818;stroke-width:1.0;" x1="143" x2="304" y1="307.9492" y2="307.9492"/><text fill="#000000" font-family="sans-serif" font-size="13" lengthAdjust="spacing" textLength="130" x="155" y="302.6865">&#25552;&#20132;&#25554;&#20214;&#32467;&#26524;&#36827;&#34892;&#20998;&#26512;</text><polygon fill="#181818" points="293,335.2402,303,339.2402,293,343.2402,297,339.2402" style="stroke:#181818;stroke-width:1.0;"/><line style="stroke:#181818;stroke-width:1.0;" x1="138" x2="299" y1="339.2402" y2="339.2402"/><text fill="#000000" font-family="sans-serif" font-size="13" lengthAdjust="spacing" textLength="104" x="145" y="333.9775">&#36820;&#22238;&#20998;&#26512;&#21518;&#30340;&#28040;&#24687;</text><line style="stroke:#181818;stroke-width:1.0;" x1="305" x2="347" y1="387.8223" y2="387.8223"/><line style="stroke:#181818;stroke-width:1.0;" x1="347" x2="347" y1="387.8223" y2="400.8223"/><line style="stroke:#181818;stroke-width:1.0;" x1="306" x2="347" y1="400.8223" y2="400.8223"/><polygon fill="#181818" points="316,396.8223,306,400.8223,316,404.8223,312,400.8223" style="stroke:#181818;stroke-width:1.0;"/><text fill="#000000" font-family="sans-serif" font-size="13" lengthAdjust="spacing" textLength="52" x="312" y="365.2686">&#28210;&#26579;&#28040;&#24687;</text><text fill="#000000" font-family="sans-serif" font-size="13" lengthAdjust="spacing" textLength="52" x="312" y="382.5596">&#23545;&#35805;&#23436;&#25104;</text><!--SRC=[RT3DIiD040Vm-px5qhilq8DGF8WdNy1Bg3a4D8Oc8DwQQakirIGsWjgQKf6W2DcYKDEKqfV9x2PluPgD_QBNdT_EVsQagd5MmoKM3fdJIk8OtCSIbdHSEJvLLAH9DKEfAfga6hXqgCbgvG13-uDUtmYawufkyE8wXF2LMZ_ia-HexqIHDmMRkT3ypilxaY6VInS8vObuPtVPjOopvYsRXM0JvhrJ-pwPZf5ej-70ThEwISSMDGbQlFyXmRcmMjHtX3XI8MXGlv_rwsbWWlN4l06rd7HqoMF0Rj27qKfCCM0P5tKoWTWJm_16KP14xRMVXLyDJ-SUz7pnHrWsxV81jYz3RIU9tuGMBfttqc57hB1zFP4W13XtxFcgECOouP_Iw8iEkejBa4bANY3iy0EWNm00]--></g></svg>