<?xml version="1.0" encoding="us-ascii" standalone="no"?><svg xmlns="http://www.w3.org/2000/svg" xmlns:xlink="http://www.w3.org/1999/xlink" contentStyleType="text/css" height="396px" preserveAspectRatio="none" style="width:875px;height:396px;background:#FFFFFF;" version="1.1" viewBox="0 0 875 396" width="875px" zoomAndPan="magnify"><defs/><g><!--cluster Client Side--><g id="cluster_Client Side"><path d="M8.5,6.0137 L85.5,6.0137 A3.75,3.75 0 0 1 88,8.5137 L95,30.6348 L169.5,30.6348 A2.5,2.5 0 0 1 172,33.1348 L172,105.5137 A2.5,2.5 0 0 1 169.5,108.0137 L8.5,108.0137 A2.5,2.5 0 0 1 6,105.5137 L6,8.5137 A2.5,2.5 0 0 1 8.5,6.0137 " fill="none" style="stroke:#000000;stroke-width:1.5;"/><line style="stroke:#000000;stroke-width:1.5;" x1="6" x2="95" y1="30.6348" y2="30.6348"/><text fill="#000000" font-family="sans-serif" font-size="14" font-weight="bold" lengthAdjust="spacing" textLength="76" x="10" y="23.1211">Client Side</text></g><!--cluster Your Infrastructure--><g id="cluster_Your Infrastructure"><path d="M581.5,287.0137 L717.5,287.0137 A3.75,3.75 0 0 1 720,289.5137 L727,311.6348 L732.5,311.6348 A2.5,2.5 0 0 1 735,314.1348 L735,386.5137 A2.5,2.5 0 0 1 732.5,389.0137 L581.5,389.0137 A2.5,2.5 0 0 1 579,386.5137 L579,289.5137 A2.5,2.5 0 0 1 581.5,287.0137 " fill="none" style="stroke:#000000;stroke-width:1.5;"/><line style="stroke:#000000;stroke-width:1.5;" x1="579" x2="727" y1="311.6348" y2="311.6348"/><text fill="#000000" font-family="sans-serif" font-size="14" font-weight="bold" lengthAdjust="spacing" textLength="135" x="583" y="304.1211">Your Infrastructure</text></g><!--cluster CDN Network--><g id="cluster_CDN Network"><path d="M198.5,6.0137 L291.5,6.0137 A3.75,3.75 0 0 1 294,8.5137 L301,30.6348 L552.5,30.6348 A2.5,2.5 0 0 1 555,33.1348 L555,386.5137 A2.5,2.5 0 0 1 552.5,389.0137 L198.5,389.0137 A2.5,2.5 0 0 1 196,386.5137 L196,8.5137 A2.5,2.5 0 0 1 198.5,6.0137 " fill="none" style="stroke:#000000;stroke-width:1.5;"/><line style="stroke:#000000;stroke-width:1.5;" x1="196" x2="301" y1="30.6348" y2="30.6348"/><text fill="#000000" font-family="sans-serif" font-size="14" font-weight="bold" lengthAdjust="spacing" textLength="92" x="200" y="23.1211">CDN Network</text></g><!--entity UBrowser--><g id="elem_UBrowser"><rect fill="#F1F1F1" height="48.6211" rx="2.5" ry="2.5" style="stroke:#181818;stroke-width:0.5;" width="134" x="22" y="43.0137"/><rect fill="#F1F1F1" height="10" style="stroke:#181818;stroke-width:0.5;" width="15" x="136" y="48.0137"/><rect fill="#F1F1F1" height="2" style="stroke:#181818;stroke-width:0.5;" width="4" x="134" y="50.0137"/><rect fill="#F1F1F1" height="2" style="stroke:#181818;stroke-width:0.5;" width="4" x="134" y="54.0137"/><text fill="#000000" font-family="sans-serif" font-size="14" lengthAdjust="spacing" textLength="94" x="37" y="78.1211">User's Browser</text></g><!--entity OServer--><g id="elem_OServer"><rect fill="#F1F1F1" height="48.6211" rx="2.5" ry="2.5" style="stroke:#181818;stroke-width:0.5;" width="124" x="595" y="324.0137"/><rect fill="#F1F1F1" height="10" style="stroke:#181818;stroke-width:0.5;" width="15" x="699" y="329.0137"/><rect fill="#F1F1F1" height="2" style="stroke:#181818;stroke-width:0.5;" width="4" x="697" y="331.0137"/><rect fill="#F1F1F1" height="2" style="stroke:#181818;stroke-width:0.5;" width="4" x="697" y="335.0137"/><text fill="#000000" font-family="sans-serif" font-size="14" lengthAdjust="spacing" textLength="84" x="610" y="359.1211">Origin Server</text></g><!--entity CDN1--><g id="elem_CDN1"><rect fill="#F1F1F1" height="48.6211" rx="2.5" ry="2.5" style="stroke:#181818;stroke-width:0.5;" width="152" x="358" y="43.0137"/><rect fill="#F1F1F1" height="10" style="stroke:#181818;stroke-width:0.5;" width="15" x="490" y="48.0137"/><rect fill="#F1F1F1" height="2" style="stroke:#181818;stroke-width:0.5;" width="4" x="488" y="50.0137"/><rect fill="#F1F1F1" height="2" style="stroke:#181818;stroke-width:0.5;" width="4" x="488" y="54.0137"/><text fill="#000000" font-family="sans-serif" font-size="14" lengthAdjust="spacing" textLength="112" x="373" y="78.1211">CDN Edge Server</text></g><!--entity CDN2--><g id="elem_CDN2"><rect fill="#F1F1F1" height="48.6211" rx="2.5" ry="2.5" style="stroke:#181818;stroke-width:0.5;" width="152" x="387" y="173.0137"/><rect fill="#F1F1F1" height="10" style="stroke:#181818;stroke-width:0.5;" width="15" x="519" y="178.0137"/><rect fill="#F1F1F1" height="2" style="stroke:#181818;stroke-width:0.5;" width="4" x="517" y="180.0137"/><rect fill="#F1F1F1" height="2" style="stroke:#181818;stroke-width:0.5;" width="4" x="517" y="184.0137"/><text fill="#000000" font-family="sans-serif" font-size="14" lengthAdjust="spacing" textLength="112" x="402" y="208.1211">CDN Edge Server</text></g><!--entity CDN3--><g id="elem_CDN3"><rect fill="#F1F1F1" height="48.6211" rx="2.5" ry="2.5" style="stroke:#181818;stroke-width:0.5;" width="152" x="276" y="324.0137"/><rect fill="#F1F1F1" height="10" style="stroke:#181818;stroke-width:0.5;" width="15" x="408" y="329.0137"/><rect fill="#F1F1F1" height="2" style="stroke:#181818;stroke-width:0.5;" width="4" x="406" y="331.0137"/><rect fill="#F1F1F1" height="2" style="stroke:#181818;stroke-width:0.5;" width="4" x="406" y="335.0137"/><text fill="#000000" font-family="sans-serif" font-size="14" lengthAdjust="spacing" textLength="112" x="291" y="359.1211">CDN Edge Server</text></g><g id="elem_GMN19"><path d="M571,54.0137 L571,63.5137 L510.16,67.5137 L571,71.5137 L571,81.3047 A0,0 0 0 0 571,81.3047 L685,81.3047 A0,0 0 0 0 685,81.3047 L685,64.0137 L675,54.0137 L571,54.0137 A0,0 0 0 0 571,54.0137 " fill="#FEFFDD" style="stroke:#181818;stroke-width:0.5;"/><path d="M675,54.0137 L675,64.0137 L685,64.0137 L675,54.0137 " fill="#FEFFDD" style="stroke:#181818;stroke-width:0.5;"/><text fill="#000000" font-family="sans-serif" font-size="13" lengthAdjust="spacing" textLength="93" x="577" y="73.042">Cached Content</text></g><g id="elem_GMN22"><path d="M574,184.0137 L574,193.5137 L539.12,197.5137 L574,201.5137 L574,211.3047 A0,0 0 0 0 574,211.3047 L688,211.3047 A0,0 0 0 0 688,211.3047 L688,194.0137 L678,184.0137 L574,184.0137 A0,0 0 0 0 574,184.0137 " fill="#FEFFDD" style="stroke:#181818;stroke-width:0.5;"/><path d="M678,184.0137 L678,194.0137 L688,194.0137 L678,184.0137 " fill="#FEFFDD" style="stroke:#181818;stroke-width:0.5;"/><text fill="#000000" font-family="sans-serif" font-size="13" lengthAdjust="spacing" textLength="93" x="580" y="203.042">Cached Content</text></g><g id="elem_GMN25"><path d="M754,335.0137 L754,362.3047 L868,362.3047 L868,345.0137 L858,335.0137 L754,335.0137 " fill="#FEFFDD" style="stroke:#181818;stroke-width:0.5;"/><path d="M858,335.0137 L858,345.0137 L868,345.0137 L858,335.0137 " fill="#FEFFDD" style="stroke:#181818;stroke-width:1.0;"/><text fill="#000000" font-family="sans-serif" font-size="13" lengthAdjust="spacing" textLength="93" x="760" y="354.042">Cached Content</text></g><!--link CDN1 to CDN2--><g id="link_CDN1_CDN2"><path d="M439.39,92.2937 C444.6,115.2837 451.1141,144.062 456.3141,167.012 " fill="none" id="CDN1-to-CDN2" style="stroke:#181818;stroke-width:1.0;"/><polygon fill="#181818" points="457.64,172.8637,459.5523,163.2023,456.5351,167.9873,451.7501,164.9701,457.64,172.8637" style="stroke:#181818;stroke-width:1.0;"/><text fill="#000000" font-family="sans-serif" font-size="13" lengthAdjust="spacing" textLength="103" x="451" y="139.042">Replicate Content</text></g><!--link CDN2 to CDN3--><g id="link_CDN2_CDN3"><path d="M431.73,222.0937 C421.47,230.7837 410.54,241.1637 402,252.0137 C384.53,274.2237 372.6509,297.9563 363.9009,318.1963 " fill="none" id="CDN2-to-CDN3" style="stroke:#181818;stroke-width:1.0;"/><polygon fill="#181818" points="361.52,323.7037,368.763,317.0299,363.5041,319.1142,361.4198,313.8553,361.52,323.7037" style="stroke:#181818;stroke-width:1.0;"/><text fill="#000000" font-family="sans-serif" font-size="13" lengthAdjust="spacing" textLength="103" x="403" y="267.042">Replicate Content</text></g><!--link CDN3 to CDN1--><g id="link_CDN3_CDN1"><path d="M324.56,323.7537 C288.89,289.8537 234.44,225.8737 264,173.0137 C285.47,134.6137 322.0015,111.0403 358.8815,94.5703 " fill="none" id="CDN3-to-CDN1" style="stroke:#181818;stroke-width:1.0;"/><polygon fill="#181818" points="364.36,92.1237,354.5112,92.1413,359.7946,94.1625,357.7733,99.4459,364.36,92.1237" style="stroke:#181818;stroke-width:1.0;"/><text fill="#000000" font-family="sans-serif" font-size="13" lengthAdjust="spacing" textLength="103" x="265" y="203.042">Replicate Content</text></g><!--link UBrowser to CDN1--><g id="link_UBrowser_CDN1"><path d="M156.34,67.5137 C214.19,67.5137 291.55,67.5137 351.82,67.5137 " fill="none" id="UBrowser-to-CDN1" style="stroke:#181818;stroke-width:1.0;"/><polygon fill="#181818" points="357.82,67.5137,348.82,63.5137,352.82,67.5137,348.82,71.5137,357.82,67.5137" style="stroke:#181818;stroke-width:1.0;"/><text fill="#000000" font-family="sans-serif" font-size="13" lengthAdjust="spacing" textLength="97" x="208.5" y="60.542">Request Content</text></g><!--link UBrowser to CDN2--><g id="link_UBrowser_CDN2"><path d="M138.55,92.0537 C156.45,100.1437 176.94,108.9437 196,116.0137 C259.32,139.5137 327.1291,159.6972 380.9991,174.6672 " fill="none" id="UBrowser-to-CDN2" style="stroke:#181818;stroke-width:1.0;"/><polygon fill="#181818" points="386.78,176.2737,379.1796,170.01,381.9626,174.9349,377.0376,177.7179,386.78,176.2737" style="stroke:#181818;stroke-width:1.0;"/><text fill="#000000" font-family="sans-serif" font-size="13" lengthAdjust="spacing" textLength="97" x="270" y="139.042">Request Content</text></g><!--link UBrowser to CDN3--><g id="link_UBrowser_CDN3"><path d="M93.35,92.2337 C100.3,124.6237 116.57,183.1137 149,222.0137 C187.87,268.6437 243.2875,300.478 288.2375,321.338 " fill="none" id="UBrowser-to-CDN3" style="stroke:#181818;stroke-width:1.0;"/><polygon fill="#181818" points="293.68,323.8637,287.2001,316.4468,289.1446,321.7589,283.8324,323.7034,293.68,323.8637" style="stroke:#181818;stroke-width:1.0;"/><text fill="#000000" font-family="sans-serif" font-size="13" lengthAdjust="spacing" textLength="97" x="150" y="203.042">Request Content</text></g><!--link CDN1 to OServer--><g id="link_CDN1_OServer"><path d="M492.82,92.0437 C512.26,99.7537 534.03,108.3237 554,116.0137 C621.32,141.9537 664.9,113.7137 706,173.0137 C738.62,220.0837 703.5395,283.5144 678.5395,319.0944 " fill="none" id="CDN1-to-OServer" style="stroke:#181818;stroke-width:1.0;"/><polygon fill="#181818" points="675.09,324.0037,683.5371,318.9394,677.9646,319.9126,676.9913,314.3401,675.09,324.0037" style="stroke:#181818;stroke-width:1.0;"/><text fill="#000000" font-family="sans-serif" font-size="13" lengthAdjust="spacing" textLength="130" x="719" y="203.042">Fetch Original Content</text></g><!--link CDN2 to OServer--><g id="link_CDN2_OServer"><path d="M493.74,222.1237 C529.96,249.9437 585.0314,292.2391 621.3214,320.1091 " fill="none" id="CDN2-to-OServer" style="stroke:#181818;stroke-width:1.0;"/><polygon fill="#181818" points="626.08,323.7637,621.3784,315.1095,622.1145,320.7182,616.5057,321.4543,626.08,323.7637" style="stroke:#181818;stroke-width:1.0;"/><text fill="#000000" font-family="sans-serif" font-size="13" lengthAdjust="spacing" textLength="130" x="555" y="267.042">Fetch Original Content</text></g><!--link CDN3 to OServer--><g id="link_CDN3_OServer"><path d="M428.18,348.5137 C479.52,348.5137 540.42,348.5137 588.6,348.5137 " fill="none" id="CDN3-to-OServer" style="stroke:#181818;stroke-width:1.0;"/><polygon fill="#181818" points="594.6,348.5137,585.6,344.5137,589.6,348.5137,585.6,352.5137,594.6,348.5137" style="stroke:#181818;stroke-width:1.0;"/><text fill="#000000" font-family="sans-serif" font-size="13" lengthAdjust="spacing" textLength="130" x="446.5" y="341.542">Fetch Original Content</text></g><!--link CDN3 to GMN25--><g id="link_CDN3_GMN25"><path d="M387.37,323.8937 C453.93,280.8237 601.54,200.8737 717.5,250.5137 C757.93,267.8137 789.18,312.1337 803.09,334.7637 " fill="none" id="CDN3-GMN25" style="stroke:#181818;stroke-width:1.0;stroke-dasharray:7.0,7.0;"/></g><!--SRC=[bT6nRi8m40RWtKznOc7AGBmnT21j9HQGYXWgrC5o3c8HsQbzAKF5ktFWEA8YHR0vlk-tT7yQfVTgXp0gQeEMO6LA7C6l0DYi0_fnW9bt1pvzWGgmxZx4KOWc9JzTws5kjru5ygscrgSNbjxiZ8KL-f_kWMKy_yaNhmjO81sSttUvyyrRoREh9DzDxipoEpCfU7ZEGvQzN31CuGERscX528MpnAj7aoSZ_pSocScWuTrIJv1n0nLTw-yM0_Ls4EQFGZa0HLmqgQvmXkz8keBuIrJT-xZpCrm-mOLrtCo5Wzkc5WgbAonxT6Fo1uoyDIS0]--></g></svg>