<?xml version="1.0" encoding="us-ascii" standalone="no"?><svg xmlns="http://www.w3.org/2000/svg" xmlns:xlink="http://www.w3.org/1999/xlink" contentStyleType="text/css" height="431px" preserveAspectRatio="none" style="width:1029px;height:431px;background:#FFFFFF;" version="1.1" viewBox="0 0 1029 431" width="1029px" zoomAndPan="magnify"><defs/><g><!--cluster Router--><g id="cluster_Router"><rect fill="none" height="108" rx="2.5" ry="2.5" style="stroke:#181818;stroke-width:1.0;" width="349" x="159" y="182"/><text fill="#000000" font-family="sans-serif" font-size="14" font-weight="bold" lengthAdjust="spacing" textLength="48" x="309.5" y="199.1074">Router</text></g><!--cluster User Interface--><g id="cluster_User Interface"><rect fill="none" height="108" rx="2.5" ry="2.5" style="stroke:#181818;stroke-width:1.0;" width="351" x="12" y="7"/><text fill="#000000" font-family="sans-serif" font-size="14" font-weight="bold" lengthAdjust="spacing" textLength="100" x="137.5" y="24.1074">User Interface</text></g><!--entity Route 1--><g id="elem_Route 1"><rect fill="#F1F1F1" height="38.6211" rx="2.5" ry="2.5" style="stroke:#181818;stroke-width:0.5;" width="70" x="414" y="227"/><text fill="#000000" font-family="sans-serif" font-size="14" lengthAdjust="spacing" textLength="50" x="424" y="252.1074">Route 1</text></g><!--entity Route 2--><g id="elem_Route 2"><rect fill="#F1F1F1" height="38.6211" rx="2.5" ry="2.5" style="stroke:#181818;stroke-width:0.5;" width="70" x="309" y="227"/><text fill="#000000" font-family="sans-serif" font-size="14" lengthAdjust="spacing" textLength="50" x="319" y="252.1074">Route 2</text></g><!--entity Route N--><g id="elem_Route N"><rect fill="#F1F1F1" height="38.6211" rx="2.5" ry="2.5" style="stroke:#181818;stroke-width:0.5;" width="71" x="202.5" y="227"/><text fill="#000000" font-family="sans-serif" font-size="14" lengthAdjust="spacing" textLength="51" x="212.5" y="252.1074">Route N</text></g><!--entity Link--><g id="elem_Link"><rect fill="#F1F1F1" height="38.6211" rx="2.5" ry="2.5" style="stroke:#181818;stroke-width:0.5;" width="46" x="55" y="52"/><text fill="#000000" font-family="sans-serif" font-size="14" lengthAdjust="spacing" textLength="26" x="65" y="77.1074">Link</text></g><!--entity Button--><g id="elem_Button"><rect fill="#F1F1F1" height="38.6211" rx="2.5" ry="2.5" style="stroke:#181818;stroke-width:0.5;" width="61" x="136.5" y="52"/><text fill="#000000" font-family="sans-serif" font-size="14" lengthAdjust="spacing" textLength="41" x="146.5" y="77.1074">Button</text></g><!--entity Other Trigger--><g id="elem_Other Trigger"><rect fill="#F1F1F1" height="38.6211" rx="2.5" ry="2.5" style="stroke:#181818;stroke-width:0.5;" width="106" x="233" y="52"/><text fill="#000000" font-family="sans-serif" font-size="14" lengthAdjust="spacing" textLength="86" x="243" y="77.1074">Other Trigger</text></g><!--entity Browser History--><g id="elem_Browser History"><rect fill="#F1F1F1" height="38.6211" rx="2.5" ry="2.5" style="stroke:#181818;stroke-width:0.5;" width="118" x="387" y="52"/><text fill="#000000" font-family="sans-serif" font-size="14" lengthAdjust="spacing" textLength="98" x="397" y="77.1074">Browser History</text></g><!--entity Navigation--><g id="elem_Navigation"><rect fill="#F1F1F1" height="38.6211" rx="2.5" ry="2.5" style="stroke:#181818;stroke-width:0.5;" width="86" x="7" y="374.5"/><text fill="#000000" font-family="sans-serif" font-size="14" lengthAdjust="spacing" textLength="66" x="17" y="399.6074">Navigation</text></g><g id="elem_GMN21"><path d="M532,224 L532,242.5 L484.26,246.5 L532,250.5 L532,268.582 A0,0 0 0 0 532,268.582 L672,268.582 A0,0 0 0 0 672,268.582 L672,234 L662,224 L532,224 A0,0 0 0 0 532,224 " fill="#FEFFDD" style="stroke:#181818;stroke-width:0.5;"/><path d="M662,224 L662,234 L672,234 L662,224 " fill="#FEFFDD" style="stroke:#181818;stroke-width:0.5;"/><text fill="#000000" font-family="sans-serif" font-size="13" lengthAdjust="spacing" textLength="97" x="538" y="243.0283">Defines path and</text><text fill="#000000" font-family="sans-serif" font-size="13" lengthAdjust="spacing" textLength="119" x="538" y="260.3193">component to render</text></g><g id="elem_GMN24"><path d="M707,224 L707,268.582 L847,268.582 L847,234 L837,224 L707,224 " fill="#FEFFDD" style="stroke:#181818;stroke-width:0.5;"/><path d="M837,224 L837,234 L847,234 L837,224 " fill="#FEFFDD" style="stroke:#181818;stroke-width:1.0;"/><text fill="#000000" font-family="sans-serif" font-size="13" lengthAdjust="spacing" textLength="97" x="713" y="243.0283">Defines path and</text><text fill="#000000" font-family="sans-serif" font-size="13" lengthAdjust="spacing" textLength="119" x="713" y="260.3193">component to render</text></g><g id="elem_GMN27"><path d="M882,224 L882,268.582 L1022,268.582 L1022,234 L1012,224 L882,224 " fill="#FEFFDD" style="stroke:#181818;stroke-width:0.5;"/><path d="M1012,224 L1012,234 L1022,234 L1012,224 " fill="#FEFFDD" style="stroke:#181818;stroke-width:1.0;"/><text fill="#000000" font-family="sans-serif" font-size="13" lengthAdjust="spacing" textLength="97" x="888" y="243.0283">Defines path and</text><text fill="#000000" font-family="sans-serif" font-size="13" lengthAdjust="spacing" textLength="119" x="888" y="260.3193">component to render</text></g><g id="elem_GMN30"><path d="M128.5,363 L128.5,390 L93.03,394 L128.5,398 L128.5,424.873 A0,0 0 0 0 128.5,424.873 L379.5,424.873 A0,0 0 0 0 379.5,424.873 L379.5,373 L369.5,363 L128.5,363 A0,0 0 0 0 128.5,363 " fill="#FEFFDD" style="stroke:#181818;stroke-width:0.5;"/><path d="M369.5,363 L369.5,373 L379.5,373 L369.5,363 " fill="#FEFFDD" style="stroke:#181818;stroke-width:0.5;"/><text fill="#000000" font-family="sans-serif" font-size="13" lengthAdjust="spacing" textLength="230" x="134.5" y="382.0283">Navigation occurs when a user interacts</text><text fill="#000000" font-family="sans-serif" font-size="13" lengthAdjust="spacing" textLength="210" x="134.5" y="399.3193">with the User Interface (clicks a link,</text><text fill="#000000" font-family="sans-serif" font-size="13" lengthAdjust="spacing" textLength="186" x="134.5" y="416.6104">button, etc.) to change the URL.</text></g><g id="elem_GMN33"><path d="M540.5,40.5 L540.5,67.5 L505.18,71.5 L540.5,75.5 L540.5,102.373 A0,0 0 0 0 540.5,102.373 L787.5,102.373 A0,0 0 0 0 787.5,102.373 L787.5,50.5 L777.5,40.5 L540.5,40.5 A0,0 0 0 0 540.5,40.5 " fill="#FEFFDD" style="stroke:#181818;stroke-width:0.5;"/><path d="M777.5,40.5 L777.5,50.5 L787.5,50.5 L777.5,40.5 " fill="#FEFFDD" style="stroke:#181818;stroke-width:0.5;"/><text fill="#000000" font-family="sans-serif" font-size="13" lengthAdjust="spacing" textLength="226" x="546.5" y="59.5283">The History API is used to interact with</text><text fill="#000000" font-family="sans-serif" font-size="13" lengthAdjust="spacing" textLength="210" x="546.5" y="76.8193">the browser's history stack. It allows</text><text fill="#000000" font-family="sans-serif" font-size="13" lengthAdjust="spacing" textLength="222" x="546.5" y="94.1104">for navigation without full page reloads.</text></g><!--link Router to Route 1--><g id="link_Router_Route 1"><path d="M175.0465,181.5544 C175.1073,181.3925 175.1686,181.2308 175.2303,181.0692 C175.7241,179.7771 176.2454,178.4988 176.7958,177.2383 C177.8966,174.7172 179.1136,172.2669 180.4586,169.9175 C185.8388,160.52 193.2675,152.7375 203.5,148.5 C239.63,133.53 343.37,133.53 379.5,148.5 C412.84,162.31 432.86,202.21 442.33,226.63 " fill="none" id="Router-Route 1" style="stroke:#181818;stroke-width:1.0;"/></g><!--link Router to Route 2--><g id="link_Router_Route 2"><path d="M175.0465,181.5544 C175.1073,181.3925 175.1686,181.2308 175.2303,181.0692 C175.7241,179.7771 176.2454,178.4988 176.7958,177.2383 C177.8966,174.7172 179.1136,172.2669 180.4586,169.9175 C185.8388,160.52 193.2675,152.7375 203.5,148.5 C232.24,136.59 244.76,136.59 273.5,148.5 C307,162.38 327.42,202.25 337.14,226.65 " fill="none" id="Router-Route 2" style="stroke:#181818;stroke-width:1.0;"/></g><!--link Router to Route N--><g id="link_Router_Route N"><path d="M167.55,246.5 C179.11,246.5 190.67,246.5 202.23,246.5 " fill="none" id="Router-Route N" style="stroke:#181818;stroke-width:1.0;"/></g><!--reverse link Browser History to Router--><g id="link_Browser History_Router"><path d="M414.1701,94.5616 C396.3701,106.6016 377.25,118.84 355,131 C329.7,144.83 323.93,150.84 296,158 C272.26,164.08 204.68,150.13 186,166 C182.6475,168.8488 179.8283,172.1733 177.4624,175.8166 C176.2794,177.6383 175.2098,179.5396 174.2435,181.501 C174.1831,181.6236 174.1231,181.7465 174.0635,181.8695 " fill="none" id="Browser History-backto-Router" style="stroke:#181818;stroke-width:1.0;"/><polygon fill="#181818" points="419.14,91.2,409.4441,92.9292,414.9985,94.0014,413.9263,99.5557,419.14,91.2" style="stroke:#181818;stroke-width:1.0;"/><text fill="#000000" font-family="sans-serif" font-size="13" lengthAdjust="spacing" textLength="53" x="341" y="154.0283">manages</text></g><!--link Router to Navigation--><g id="link_Router_Navigation"><path d="M158.9414,268.7984 C158.9036,268.8879 158.8656,268.9776 158.8275,269.0675 C153.9525,280.57 147.13,294.65 139,306 C120,332.52 97.0263,354.1496 77.6263,370.5996 " fill="none" id="Router-to-Navigation" style="stroke:#181818;stroke-width:1.0;"/><polygon fill="#181818" points="73.05,374.48,82.5014,371.7102,76.8636,371.2463,77.3275,365.6085,73.05,374.48" style="stroke:#181818;stroke-width:1.0;"/><text fill="#000000" font-family="sans-serif" font-size="13" lengthAdjust="spacing" textLength="43" x="133" y="329.0283">triggers</text></g><!--link Navigation to User Interface--><g id="link_Navigation_User Interface"><path d="M48,374.34 C46.12,356.73 43.28,329.58 41,306 C36.065,254.955 30.9,197.5925 26.9275,152.4963 C25.9344,141.2222 25.0158,130.7148 24.1939,121.2644 C24.0912,120.0831 23.99,118.9183 23.8903,117.7706 C23.8405,117.1967 23.7911,116.6271 23.742,116.0619 C23.7175,115.7793 24.2116,121.4753 24.1873,121.1949 " fill="none" id="Navigation-to-User Interface" style="stroke:#181818;stroke-width:1.0;"/><polygon fill="#181818" points="23.6687,115.2173,20.4615,124.5293,24.1008,120.1986,28.4315,123.838,23.6687,115.2173" style="stroke:#181818;stroke-width:1.0;"/><text fill="#000000" font-family="sans-serif" font-size="13" lengthAdjust="spacing" textLength="108" x="42" y="252.0283">via user interaction</text></g><!--link Link to Router--><g id="link_Link_Router"><path d="M81.13,91.14 C85.33,110.46 94.63,140.28 114,158 C122.61,165.87 130.63,157.87 139,166 C145.5075,172.3225 150.505,180.2456 154.3423,188.6233 C155.3017,190.7177 156.1885,192.8405 157.0083,194.9738 C157.4182,196.0405 157.8113,197.1098 158.1884,198.1795 C158.3769,198.7143 158.5614,199.2492 158.742,199.784 C158.7871,199.9177 156.9308,194.3605 156.9755,194.4942 " fill="none" id="Link-to-Router" style="stroke:#181818;stroke-width:1.0;"/><polygon fill="#181818" points="158.8767,200.185,159.8188,190.3813,157.2923,195.4426,152.231,192.9162,158.8767,200.185" style="stroke:#181818;stroke-width:1.0;"/><text fill="#000000" font-family="sans-serif" font-size="13" lengthAdjust="spacing" textLength="43" x="115" y="154.0283">onClick</text></g><!--link Button to Router--><g id="link_Button_Router"><path d="M167,91.01 C167,101.995 167,116.9294 167,133.2041 C167,141.3414 167,149.8138 167,158.2952 C167,162.5359 167,166.7788 167,170.9832 C167,173.0854 167,175.1779 167,177.2558 C167,178.2947 167,179.3299 167,180.3608 C167,180.8763 167,175.3907 167,175.9039 " fill="none" id="Button-to-Router" style="stroke:#181818;stroke-width:1.0;"/><polygon fill="#181818" points="167,181.9039,171,172.9039,167,176.9039,163,172.9039,167,181.9039" style="stroke:#181818;stroke-width:1.0;"/><text fill="#000000" font-family="sans-serif" font-size="13" lengthAdjust="spacing" textLength="43" x="168" y="154.0283">onClick</text></g><!--link Other Trigger to Router--><g id="link_Other Trigger_Router"><path d="M276.57,91.24 C265.67,110.94 245.85,141.35 220,158 C206.95,166.41 197,155.04 186,166 C182.8838,169.105 180.2436,172.6238 178.0099,176.4105 C177.4515,177.3572 176.9185,178.3206 176.4098,179.2986 C176.1554,179.7875 175.9072,180.2801 175.6649,180.776 C175.5437,181.0239 175.424,181.2727 175.3058,181.5223 C175.2467,181.6471 177.7235,176.3342 177.6652,176.4594 " fill="none" id="Other Trigger-to-Router" style="stroke:#181818;stroke-width:1.0;"/><polygon fill="#181818" points="175.1296,181.8973,182.5582,175.4308,177.2426,177.3657,175.3077,172.05,175.1296,181.8973" style="stroke:#181818;stroke-width:1.0;"/><text fill="#000000" font-family="sans-serif" font-size="13" lengthAdjust="spacing" textLength="44" x="243" y="154.0283">trigger()</text></g><!--link Route 2 to GMN24--><g id="link_Route 2_GMN24"><path d="M350.86,226.65 C360.58,202.25 381,162.38 414.5,148.5 C467.47,126.56 619.19,127.41 672.5,148.5 C710.66,163.59 743.04,199.94 761.24,223.88 " fill="none" id="Route 2-GMN24" style="stroke:#181818;stroke-width:1.0;stroke-dasharray:7.0,7.0;"/></g><!--link Route N to GMN27--><g id="link_Route N_GMN27"><path d="M245.06,226.67 C255.02,202.3 275.84,162.44 309.5,148.5 C364.73,125.62 791.91,126.51 847.5,148.5 C885.66,163.59 918.04,199.94 936.24,223.88 " fill="none" id="Route N-GMN27" style="stroke:#181818;stroke-width:1.0;stroke-dasharray:7.0,7.0;"/></g><!--SRC=[fLF1IiD04BtlLmnURA4fsAE8OFLWeLIfzLHps6usoPBjRDdTj1JntvrDKj942u8vPNRUU_FsJU8AXJjk-HQ4sUuCIlJmoO2UDt_K4gmKdcEc9VjYh8KiJUcbRP3hkeeXQbxX9hxGc5ngBEBkWAjtH_ep95JAXRmwZPehB1gDQUczmQPuyJdXLrPb6Ua6hVNKcaCGULRE6tkCuIwAsictiEN8C-bOQoQwX_M2xrN6lI9bmlXQa43dvnMmQp20zuf36KvLEEKYWCb7PRdcjCCDFceb2dQwnSL-zs9zMEDlC6GC3SL8PUx1fEqY2FGaKuNImOxx73Wc7zZcx0sj61DfV-TF_ibV_9tV5pWBd5RSLc24AAs3GouHUe4xGXuKJQ7GeBiW68WGg2EAfeMC2BcfeX-1z68y34v4Jf-whCdB-PYHCGYkVdZhVreajY9IKyB3wmoK2zQI87joLraZQD3Vr0hN3lA6v3mNnHXc7hZMr2HWQYnWU_50frGXBRMcCBFmTsh34tVcz1i0]--></g></svg>